<svg width="28" height="28" viewBox="0 0 28 29" fill="none" xmlns="http://www.w3.org/2000/svg">
<circle cx="14" cy="14.6666" r="14" fill="#4E6297"/>
<path d="M20.3 10.3397C20.3 9.29151 19.3751 8.36664 18.3269 8.36664H10.3731C9.32487 8.36664 8.4 9.29151 8.4 10.3397V18.2936C8.4 19.3418 9.32487 20.2666 10.3731 20.2666H14.3808V15.7656H12.901V13.7925H14.3808V12.991C14.3808 11.6345 15.3674 10.463 16.6005 10.463H18.2036V12.4361H16.6005C16.4155 12.4361 16.2306 12.621 16.2306 12.991V13.7925H18.2036V15.7656H16.2306V20.2666H18.3269C19.3751 20.2666 20.3 19.3418 20.3 18.2936V10.3397Z" fill="white"/>
</svg>
