<svg width="28" height="28" viewBox="0 0 36 36" fill="none" xmlns="http://www.w3.org/2000/svg">
<circle cx="18" cy="18" r="18" fill="url(#paint0_linear)"/>
<path d="M23.9227 10.8H12.9773C11.7416 10.8 10.8 11.7415 10.8 12.9773V23.9227C10.8 25.1584 11.7416 26.1 12.9773 26.1H23.9227C25.1585 26.1 26.1 25.1584 26.1 23.9227V12.9773C26.1 11.7415 25.1585 10.8 23.9227 10.8ZM18.45 23.04C20.9804 23.04 23.04 21.0392 23.04 18.6265C23.04 18.2146 22.9812 17.7438 22.8635 17.3908H24.1581V23.6284C24.1581 23.9227 23.9227 24.2169 23.5696 24.2169H13.3304C13.0362 24.2169 12.742 23.9815 12.742 23.6284V17.3319H14.0954C13.9777 17.7438 13.9189 18.1558 13.9189 18.5677C13.86 21.0392 15.9196 23.04 18.45 23.04ZM18.45 21.2746C16.8023 21.2746 15.5077 19.98 15.5077 18.3911C15.5077 16.8023 16.8023 15.5077 18.45 15.5077C20.0977 15.5077 21.3923 16.8023 21.3923 18.3911C21.3923 20.0388 20.0977 21.2746 18.45 21.2746ZM24.0993 14.9781C24.0993 15.3311 23.805 15.6254 23.452 15.6254H21.8043C21.4512 15.6254 21.157 15.3311 21.157 14.9781V13.3892C21.157 13.0361 21.4512 12.7419 21.8043 12.7419H23.452C23.805 12.7419 24.0993 13.0361 24.0993 13.3892V14.9781Z" fill="white"/>
<defs>
<linearGradient id="paint0_linear" x1="7.65" y1="31.95" x2="31.5" y2="7.2" gradientUnits="userSpaceOnUse">
<stop stop-color="#EEA054"/>
<stop offset="0.502762" stop-color="#D64763"/>
<stop offset="1" stop-color="#B62A99"/>
</linearGradient>
</defs>
</svg>
