<svg width="28" height="28" viewBox="0 0 28 29" fill="none" xmlns="http://www.w3.org/2000/svg">
<circle cx="14" cy="14.6666" r="14" fill="#7294C7"/>
<path d="M20.8643 18.2474C20.8643 18.1892 20.8062 18.1892 20.8062 18.1311C20.5737 17.6662 20.0507 17.085 19.3533 16.4458C19.0046 16.1552 18.8302 15.9227 18.714 15.8065C18.5396 15.574 18.5396 15.3997 18.5978 15.1672C18.6559 14.9929 18.8883 14.7023 19.2951 14.1792C19.5276 13.8886 19.6438 13.7143 19.8182 13.54C20.6899 12.3776 21.0967 11.6221 20.9805 11.2734L20.9224 11.2153C20.8643 11.1572 20.8062 11.0991 20.6899 11.0991C20.5737 11.041 20.3993 11.041 20.225 11.0991H18.0166C17.9585 11.0991 17.9585 11.0991 17.8422 11.0991C17.7841 11.0991 17.726 11.0991 17.726 11.0991H17.6679H17.6098L17.5517 11.1572C17.4935 11.2153 17.4935 11.2153 17.4935 11.2734C17.2611 11.9127 16.9705 12.4357 16.6799 13.0169C16.5056 13.3075 16.3312 13.5981 16.1569 13.8305C15.9825 14.063 15.8663 14.2373 15.7501 14.3536C15.6338 14.4698 15.5176 14.5279 15.4595 14.6442C15.4014 14.7023 15.2851 14.7604 15.2851 14.7023C15.227 14.7023 15.1689 14.7023 15.1689 14.6442C15.1108 14.586 15.0527 14.5279 14.9946 14.4698C14.9364 14.4117 14.9364 14.2955 14.8783 14.1792C14.8783 14.063 14.8783 13.9468 14.8783 13.8886C14.8783 13.8305 14.8783 13.6562 14.8783 13.54C14.8783 13.3656 14.8783 13.2494 14.8783 13.1913C14.8783 13.0169 14.8783 12.7845 14.8783 12.552C14.8783 12.3195 14.8783 12.1452 14.8783 12.0289C14.8783 11.9127 14.8783 11.7384 14.8783 11.6221C14.8783 11.4478 14.8783 11.3315 14.8783 11.2734C14.8783 11.2153 14.8202 11.0991 14.8202 11.041C14.7621 10.9828 14.704 10.9247 14.6459 10.8666C14.5877 10.8085 14.4715 10.8085 14.4134 10.7504C14.1228 10.6923 13.7741 10.6342 13.3673 10.6342C12.4375 10.6342 11.7982 10.6923 11.5657 10.8085C11.4495 10.8666 11.3332 10.9247 11.2751 11.041C11.1589 11.1572 11.1589 11.2153 11.217 11.2153C11.5076 11.2734 11.7401 11.3897 11.8563 11.564L11.9144 11.6802C11.9725 11.7384 11.9725 11.8546 12.0306 12.0289C12.0888 12.2033 12.0888 12.3776 12.0888 12.6101C12.0888 12.9588 12.0888 13.3075 12.0888 13.54C12.0888 13.8305 12.0306 14.0049 12.0306 14.1792C12.0306 14.3536 11.9725 14.4698 11.9144 14.5279C11.8563 14.6442 11.8563 14.7023 11.7982 14.7023C11.7982 14.7023 11.7982 14.7604 11.7401 14.7604C11.6819 14.7604 11.6238 14.8185 11.5076 14.8185C11.4495 14.8185 11.3332 14.7604 11.2751 14.7023C11.1589 14.6442 11.0427 14.5279 10.9846 14.4117C10.8683 14.2955 10.7521 14.1211 10.6359 13.8886C10.5196 13.6562 10.3453 13.4237 10.229 13.075L10.1128 12.8426C10.0547 12.7263 9.93846 12.4939 9.82223 12.2033C9.706 11.9127 9.58976 11.6802 9.47353 11.3897C9.41542 11.2734 9.35731 11.2153 9.29919 11.1572H9.24107C9.24107 11.1572 9.18295 11.0991 9.12483 11.0991C9.06672 11.0991 9.00861 11.041 8.95049 11.041H6.85831C6.62585 11.041 6.50961 11.0991 6.4515 11.1572L6.39338 11.2153C6.39338 11.2153 6.39338 11.2734 6.39338 11.3315C6.39338 11.3897 6.39338 11.4478 6.4515 11.564C6.74208 12.2614 7.09077 12.9588 7.43947 13.6562C7.78817 14.2955 8.13687 14.8766 8.36933 15.2834C8.65991 15.6903 8.89237 16.0971 9.18295 16.4458C9.47353 16.7945 9.64788 17.0269 9.70599 17.1432C9.82222 17.2594 9.88034 17.3175 9.93845 17.3756L10.1128 17.55C10.229 17.6662 10.4034 17.8405 10.6359 18.0149C10.8683 18.1892 11.1589 18.3636 11.4495 18.5379C11.7401 18.7123 12.0888 18.8285 12.4375 18.9448C12.8443 19.061 13.193 19.1191 13.5417 19.061H14.4134C14.5877 19.061 14.704 19.0029 14.8202 18.8866L14.8783 18.8285C14.8783 18.7704 14.9364 18.7704 14.9364 18.7123C14.9364 18.6542 14.9364 18.5961 14.9364 18.4798C14.9364 18.2474 14.9364 18.073 14.9946 17.8987C15.0527 17.7243 15.0527 17.6081 15.1108 17.4919C15.1689 17.3756 15.227 17.3175 15.2851 17.2594C15.3433 17.2013 15.4014 17.1432 15.4014 17.1432H15.4595C15.5757 17.085 15.7501 17.1431 15.8663 17.2594C16.0406 17.3756 16.215 17.55 16.3312 17.7243C16.4475 17.8987 16.6218 18.073 16.8543 18.3055C17.0867 18.5379 17.2611 18.7123 17.3773 18.7704L17.5517 18.8866C17.6679 18.9447 17.7841 19.0029 17.9585 19.061C18.1328 19.1191 18.249 19.1191 18.3653 19.1191L20.3412 19.061C20.5156 19.061 20.6899 19.0029 20.8062 18.9448C20.9224 18.8866 20.9805 18.8285 20.9805 18.7123C20.9805 18.6542 20.9805 18.5379 20.9805 18.4798C20.8643 18.3636 20.8643 18.3055 20.8643 18.2474Z" fill="white"/>
</svg>
