<svg width="28" height="28" viewBox="0 0 28 29" fill="none" xmlns="http://www.w3.org/2000/svg">
<circle cx="14" cy="14.6666" r="14" fill="#2C3036"/>
<path fill-rule="evenodd" clip-rule="evenodd" d="M27.9999 14.8209V14.6662V14.5121C21.8007 14.3245 18.9658 14.1698 16.7048 11.9614C14.4971 9.7009 14.3418 6.86613 14.1547 0.666626H13.9999H13.8452C13.6582 6.86613 13.5029 9.7009 11.2951 11.9614C9.03408 14.1698 6.1992 14.3245 0 14.5121V14.6662V14.8209C6.1992 15.0085 9.03408 15.1632 11.2951 17.371C13.5029 19.6321 13.6582 22.4669 13.8452 28.6664H13.9999H14.1547C14.3418 22.4669 14.4971 19.6321 16.7048 17.371C18.9658 15.1632 21.8007 15.0085 27.9999 14.8209Z" fill="white"/>
</svg>
