<svg width="28" height="28" viewBox="0 0 28 29" fill="none" xmlns="http://www.w3.org/2000/svg">
<circle cx="14" cy="14.6666" r="14" fill="#F40000"/>
<path d="M20.0992 13.9058C20.0992 13.6343 20.0539 13.3175 20.0539 12.9555C20.0087 12.5935 19.9634 12.2315 19.9182 11.9147C19.8277 11.5527 19.6919 11.2812 19.4204 11.0549C19.1941 10.8286 18.8774 10.6929 18.5606 10.6476C17.5198 10.5119 15.9812 10.4666 13.8996 10.4666C11.818 10.4666 10.2341 10.5119 9.23858 10.6476C8.92181 10.6929 8.60505 10.8286 8.37878 11.0549C8.15252 11.2812 7.97151 11.5527 7.881 11.9147C7.7905 12.2315 7.74525 12.5482 7.74525 12.9555C7.7 13.3175 7.7 13.6343 7.7 13.9058C7.7 14.1773 7.7 14.4941 7.7 14.9466C7.7 15.3991 7.7 15.7612 7.7 15.9874C7.7 16.2589 7.74525 16.5757 7.74525 16.9377C7.7905 17.2997 7.83575 17.6618 7.881 17.9785C7.97151 18.3405 8.10727 18.6121 8.37878 18.8383C8.60505 19.0646 8.92181 19.2003 9.23858 19.2456C10.2794 19.3814 11.818 19.4266 13.8996 19.4266C15.9812 19.4266 17.565 19.3814 18.5606 19.2456C18.8774 19.2003 19.1941 19.0646 19.4204 18.8383C19.6467 18.6121 19.8277 18.3405 19.9182 17.9785C20.0087 17.6618 20.0539 17.345 20.0539 16.9377C20.0992 16.5757 20.0992 16.2589 20.0992 15.9874C20.0992 15.7159 20.0992 15.3991 20.0992 14.9466C20.0992 14.4941 20.0992 14.1321 20.0992 13.9058ZM16.298 15.3086L12.723 17.526C12.6778 17.5713 12.5873 17.6165 12.4968 17.6165C12.4063 17.6165 12.361 17.6165 12.2705 17.5713C12.1347 17.4808 12.0442 17.345 12.0442 17.164V12.684C12.0442 12.503 12.1347 12.3672 12.2705 12.2767C12.4063 12.1862 12.5873 12.1862 12.723 12.2767L16.298 14.4941C16.4337 14.5846 16.5242 14.7204 16.5242 14.8561C16.5242 14.9919 16.4337 15.2181 16.298 15.3086Z" fill="white"/>
</svg>
